<?xml version="1.0" standalone="no"?><!DOCTYPE svg PUBLIC "-//W3C//DTD SVG 1.1//EN" "http://www.w3.org/Graphics/SVG/1.1/DTD/svg11.dtd"><svg t="1638590621155" class="icon" viewBox="0 0 1024 1024" version="1.1" xmlns="http://www.w3.org/2000/svg" p-id="1752" xmlns:xlink="http://www.w3.org/1999/xlink" width="128" height="128"><defs><style type="text/css"></style></defs><path d="M0 0h1024v1024H0z" fill="#009966" p-id="1753"></path><path d="M970.6496 26.1632c45.6704 14.1312 45.6704 15.3088 23.7056 77.6192-27.7504 77.6192-21.4016 69.9904-49.1008 60.5696-25.4464-9.4208-55.5008-11.1616-71.68-5.2736-17.92 7.0656-27.7504 38.8096-30.6176 97.6384-1.1776 31.1808-1.1776 63.5392 1.1776 71.7824 3.4816 15.3088 4.0448 15.3088 64.1536 15.3088h60.672v141.2096h-124.8256l2.304 258.816 2.304 258.816-97.0752-1.1776-97.6896-1.7408 2.304-257.6384 1.7408-257.0752H576V343.808h80.896l-1.1776-84.1216c-0.5632-65.28 1.1776-91.1872 9.2672-118.2208 19.0464-66.4576 59.5456-106.4448 124.2624-125.2864 38.0928-11.1616 132.2496-5.888 181.4016 9.984zM402.5344 340.8896c54.8864 17.0496 92.4672 37.632 92.4672 50.5856 0 14.1312-50.8416 118.8352-56.6272 115.8656-2.304-1.1776-18.4832-9.4208-36.4032-18.2272-62.976-31.744-138.1376-33.536-167.5776-3.5328-12.1344 12.3392-15.0016 45.8752-5.2224 64.7168 7.5264 13.5168 36.9664 29.3888 99.3792 52.9408 95.9488 35.8912 145.6128 72.3456 168.7552 122.9312 9.8304 21.1968 12.1344 37.632 12.1344 82.3296 0 71.168-13.8752 105.2672-58.368 146.4832-90.7264 84.1216-277.4016 85.2992-405.0944 2.9184-16.7424-11.1616-30.6176-24.1152-30.6176-29.3888 0-8.8064 40.448-89.3952 53.76-106.4448 4.0448-5.888 10.3936-3.5328 26.5728 9.4208 30.6176 24.1152 77.4144 47.0528 112.128 54.1184 60.672 12.3392 113.8688-17.664 113.8688-64.1024 0-32.3584-21.4016-52.9408-75.7248-74.1376-155.4432-61.184-208.64-115.8656-209.7664-214.1184-1.1776-104.1408 53.1456-171.2128 160.0512-198.8608 41.0112-10.5472 164.096-7.0144 206.2848 6.5024z" fill="#FFFFFF" p-id="1754"></path></svg>